<?xml version="1.0" encoding="utf-8"?>
<!-- Generator: Adobe Illustrator 19.0.0, SVG Export Plug-In . SVG Version: 6.00 Build 0)  -->
<svg version="1.1" id="Layer_1" xmlns="http://www.w3.org/2000/svg" xmlns:xlink="http://www.w3.org/1999/xlink" x="0px" y="0px"
	 viewBox="0 0 374.8 280.3" style="enable-background:new 0 0 374.8 280.3;" xml:space="preserve">
<style type="text/css">
	.st0{fill:#5E5F5F;}
	.st1{fill:#8C8C8C;}
	.st2{fill:#FFFFFF;}
	.st3{fill:#3FA3DB;}
	.st4{fill:#BCC3C6;}
</style>
<g id="XMLID_1_">
	<path id="XMLID_13_" class="st0" d="M188.1,154.7c0,0,17.7-3.7,73.3-33.9c0,0,20.9-11.6,21.8,27.4c0,0-6.3-23.4-20.1-17.5
		c0,0-38.2,17.5-57.2,50.9L188.1,154.7z"/>
	<path id="XMLID_12_" class="st1" d="M188.8,154.8c0,0-17.8-3.7-73.6-34c0,0-21-11.6-21.9,27.5c0,0,6.4-23.5,20.2-17.6
		c0,0,38.3,17.6,57.4,51.1L188.8,154.8z"/>
	<polyline id="XMLID_11_" class="st1" points="188.6,154.8 147.4,216.5 188.6,277.7 	"/>
	<polyline id="XMLID_10_" class="st0" points="188.2,277.7 229.3,216 188.2,154.8 	"/>
	<circle id="XMLID_9_" class="st1" cx="142.7" cy="155.7" r="11.8"/>
	<circle id="XMLID_8_" class="st2" cx="143.4" cy="162.5" r="5.2"/>
	<circle id="XMLID_7_" class="st0" cx="235" cy="155.4" r="11.8"/>
	<circle id="XMLID_6_" class="st2" cx="235.7" cy="162.2" r="5.2"/>
	<path id="XMLID_5_" class="st3" d="M186.9,0.1C156.4,5.1-56,46.6,18.1,233.7c0.2,0.5,0.7,0.8,1.2,0.6c9.6-4.1,99.8-40,167.9,45.7
		c0.7,0.9,2,0.1,1.6-1c-6.7-19.3-35.9-86-120.6-99.4c-0.3-0.1-0.6-0.3-0.7-0.7c-2-6.4-15.7-64.8,120.2-177
		C188.3,1.3,187.8,0,186.9,0.1z"/>
	<path id="XMLID_4_" class="st4" d="M190.2,0C220.7,5,433.4,46.5,359.2,233.6c-0.2,0.5-0.7,0.8-1.2,0.6c-9.6-4.1-99.9-40-168,45.7
		c-0.7,0.9-2,0.1-1.6-1c6.7-19.3,36-86,120.8-99.4c0.3-0.1,0.6-0.3,0.7-0.7c2-6.4,15.8-64.8-120.3-177C188.8,1.2,189.3-0.1,190.2,0z
		"/>
</g>
</svg>
